<?xml version="1.0" encoding="UTF-8"?>
<svg width="463px" height="612px" viewBox="0 0 463 612" version="1.1" xmlns="http://www.w3.org/2000/svg" xmlns:xlink="http://www.w3.org/1999/xlink">
    <title>buetian4</title>
    <g id="Page-1" stroke="none" stroke-width="1" fill="none" fill-rule="evenodd">
        <g id="buetian4" fill-rule="nonzero">
            <g id="Samble" transform="translate(0.000027, 0.500000)">
                <path d="M214.014416,7.79304331 C214.196968,5.48378167 213.29942,1.97430256 215.794299,0.698131649 C226.275832,0.409473943 236.772577,0.455054666 247.25411,0.713327198 C247.634427,3.05297994 248.014744,5.39261141 247.999531,7.77783561 C247.93868,33.1189285 247.93868,58.4600365 247.984319,83.8011445 C236.909491,82.4642036 225.408709,81.3247653 214.531647,84.5 C214.531647,84.5 214.44037,33.3468161 214.014416,7.79304331 Z" id="Path" fill="#00324B"></path>
                <path d="M250.999973,228.050396 C260.092622,225.310201 268.670879,221.086365 276.371642,215.5 C299.186477,291.998374 322.682126,368.2848 345.678511,444.737757 C351.896612,464.660943 357.600321,484.75066 363.999973,504.61329 C357.312866,505.339972 350.262659,505.128023 344.074816,508.216419 C341.018717,509.866592 338.219815,511.925523 335.118329,513.5 C309.504592,425.541252 283.134395,337.794452 257.218074,249.926539 C255.160503,242.629445 252.57341,235.468604 250.999973,228.050396 Z" id="Path" fill="#00324B"></path>
                <path d="M220.684643,104.610872 C232.719586,102.203238 245.574058,103.672046 256.501118,109.380712 C274.166532,118.32984 286.04971,137.908898 284.926651,157.775055 C285.306062,183.45648 263.543001,206.699987 238.076881,209.047051 C212.762525,212.605503 186.88664,194.782957 180.755345,170.146355 C176.126521,152.641799 180.709816,132.578791 193.822288,119.783506 C200.985582,112.182046 210.470878,106.836797 220.684643,104.610872 Z M220.381114,125.492172 C209.378172,129.610891 201.046288,139.892546 199.346523,151.506728 C197.677112,162.272333 201.820288,173.901657 210.076289,181.063989 C218.742055,189.256 232.066998,191.315359 243.191352,187.529772 C260.917471,181.699967 270.38759,159.501283 262.08606,142.769593 C255.469118,127.263827 236.05841,119.374662 220.381114,125.492172 Z" id="Shape" fill="#01324A"></path>
                <path d="M154.018621,125.166988 C156.866275,124.183177 159.971429,122.518266 162.909966,124.258855 C159.577605,134.308864 155.730243,144.464822 156.184655,155.255867 C155.63936,169.180579 160.456136,182.484732 165.999973,195.016972 C154.064062,200.601992 142.688594,207.322179 132.055333,215.056448 C127.268852,219.914961 121.770456,223.956155 116.938533,228.754126 C102.866882,242.482075 91.9306794,259.146322 83.6906598,276.915464 C78.7527069,288.494164 75.4657874,300.63288 71.6941608,312.574834 C69.8310681,331.448872 68.5738592,350.640756 71.7547491,369.469388 C72.693869,373.571123 73.648136,377.687994 74.2540198,381.865408 C75.6626996,390.64403 79.9947687,398.514519 82.6909516,406.899617 C87.3259626,418.251284 94.1573023,428.543461 101.04923,438.654013 C102.609381,440.667042 102.230704,443.436848 102.079233,445.813131 C99.1558436,458.405913 93.2939179,470.272189 90.8400886,482.986055 C80.4491815,488.071602 70.4975403,494.383129 59.743103,498.5 C50.9426409,490.992764 45.3230688,480.640044 38.0979045,471.770609 C38.1584929,470.953289 38.2948168,469.34892 38.3554052,468.5316 C45.2170391,460.3584 53.4419116,453.365773 59.4098669,444.450931 C58.1980993,441.499497 56.8045666,438.638877 55.0475036,435.975019 C52.4270562,432.115453 51.5485247,427.362888 48.5796941,423.715219 C37.0981963,424.714166 25.6312397,426.394213 14.0588592,425.607164 C11.6959125,413.967921 7.57347914,402.237866 5.92486935,391.067826 C12.5441498,388.070985 18.9362238,384.620079 25.5403571,381.592968 C28.26744,380.472937 31.0090642,379.368041 33.7506883,378.278281 C32.5661855,368.939643 32.5661855,359.85831 33.1750987,351.897007 C26.9338898,350.201825 20.6781397,348.582321 14.3618011,347.174714 C9.545025,346.206038 4.94030819,344.404907 0.0932378589,343.572452 C-0.224851132,331.675905 0.214414617,319.673409 2.2895666,307.973625 C7.92428586,304.901107 36.1136351,304.144329 36.1136351,304.144329 C37.204226,295.441384 40.1397329,286.450864 41.1424706,278.368478 C33.2659813,272.056951 25.1616797,265.866509 16.6035712,260.508522 C16.103717,254.575384 19.5269605,249.504973 21.7535834,244.298342 C23.7378528,239.349015 26.8581543,234.989975 29.2671483,230.252546 C30.6152397,226.983266 34.7049553,228.60277 37.3556969,228.663313 C45.6411577,230.767155 54.0477953,232.992082 61.8485492,236.533802 L79.2525611,214.451026 C73.9510779,207.155688 69.5584204,199.254928 64.378114,191.883912 C62.93914,190.007103 62.2575207,187.721634 61.8636963,185.42103 C67.256062,179.83601 72.7241632,174.311532 78.7981482,169.468154 C81.9941852,166.743754 85.4022815,161.294954 90.2190577,164.367472 C97.9289289,169.922221 104.942034,176.445645 112.909406,181.682548 C116.226619,183.044748 119.571098,179.896552 121.934045,178.231641 L136.962992,167.894056 C134.706075,157.072134 132.464305,146.220546 130.601212,135.30781 C137.977848,130.994177 146.066396,128.209235 154.018621,125.166988 Z" id="Path" fill="#15ADFF"></path>
                <path d="M300.019509,123.5 C302.887309,123.681429 305.997886,123.33369 308.653256,124.754883 C316.103468,128.141555 324.024059,130.439653 331.185972,134.461326 C331.459096,145.63432 327.847792,156.338168 325.951099,167.239018 C330.457642,171.850335 336.95192,173.87629 341.95919,177.928201 C344.402131,179.440108 347.118196,183.038447 350.25912,181.057849 C356.905133,176.098794 363.551147,171.124619 369.969557,165.893421 C372.260762,164.336157 375.523074,161.418176 378.208792,163.912823 C386.15973,170.474499 393.837545,177.414153 400.999459,184.852736 C399.664186,189.17679 397.524716,193.198463 394.884519,196.872397 C390.878703,202.421096 387.768126,208.54432 383.716789,214.06278 C387.843994,221.380411 394.110669,227.201253 398.146832,234.579359 C405.096316,235.153884 411.332644,231.827688 417.94831,230.406496 C422.257597,229.36328 426.460669,227.89673 430.633394,226.399942 C431.999013,227.760658 433.546715,229.045779 434.33574,230.860068 C438.18982,238.616151 442.286678,246.266401 445.715899,254.219032 C446.459403,256.003083 446.2318,257.9988 446.413882,259.888684 C437.780135,265.240835 429.814023,271.681559 421.772043,277.865259 C420.634027,286.725034 426.020636,294.889333 426.536537,303.688632 C438.007738,304.8528 449.645848,304.867919 460.99566,307.150899 C461.830205,319.079846 463.590337,330.978555 462.801312,342.967978 C451.70945,346.112744 440.268596,348.1387 429.571246,352.508111 C429.571246,358.948836 428.357362,376.335767 428.357362,376.335767 C428.357362,376.335767 439.221621,381.778632 443.227438,383.713873 C447.733981,386.102687 452.543995,387.886737 457.065712,390.260431 C457.338836,402.144021 452.422607,413.241419 448.644394,424.27834 C447.840196,424.686555 446.246973,425.518104 445.457949,425.941438 C436.930416,425.472747 424.791579,423.96084 414.549435,422.932743 C414.549435,422.932743 405.278399,438.414671 403.123755,443.736584 C408.571058,450.676238 414.837733,456.890176 420.694722,463.451853 C422.060341,465.326617 423.365266,467.261858 424.670191,469.1971 C424.427414,469.862339 423.94186,471.177698 423.699084,471.827818 C418.631119,481.322594 410.831916,488.987963 404.322465,497.5 C402.365078,497.348809 400.513905,496.84988 398.784121,496.003212 C390.666274,491.936182 382.427038,488.111057 374.415406,483.847479 C372.776663,482.804263 372.260762,480.763189 371.593126,479.100091 C367.981822,467.806145 364.385692,456.49708 360.95647,445.142658 C358.953562,438.520505 365.129195,434.151093 367.951475,428.950133 C373.262216,419.546071 379.210246,410.308319 382.396691,399.906398 C393.185082,373.145643 395.218337,343.451788 391.227695,315.027935 C391.242868,310.779476 389.042704,307.029946 388.25368,302.962916 C382.442212,280.057524 371.820729,258.361658 356.540968,240.26413 C349.379054,232.765071 343.142727,224.31351 334.645541,218.175168 C323.265381,208.514081 310.170611,201.226689 296.999973,194.347512 C297.591741,189.327981 301.825161,185.744761 302.492797,180.664753 C309.260198,162.174129 307.849058,141.431218 300.019509,123.5 Z" id="Path" fill="#15ADFF"></path>
                <path d="M158.045308,488.5 C167.802108,492.325743 178.872383,496.786589 189.08525,499.130423 C198.966709,501.39865 206.981332,502.835194 216.04187,503.787849 C227.850973,505.029325 239.909393,504.619532 251.827952,504.044915 C261.587793,503.364446 271.134802,500.89964 280.544991,498.313861 C294.196607,494.336904 297.781296,493.081818 305.081413,490.29946 C307.08811,499.251395 312.728142,514.917282 316.999973,523.067777 C310.703203,525.593069 293.983775,531.808011 293.983775,531.808011 C293.983775,531.808011 292.554764,534.227453 292.068292,535.028893 C292.083495,545.780288 292.52436,556.546805 291.77945,567.267957 C281.058827,569.445455 267.376808,571.713681 254.290716,572.484879 C252.010379,562.640774 247.297683,553.613231 244.242032,544.026193 C244.97174,544.510081 243.527527,543.542304 244.242032,544.026193 C236.428079,543.481818 226.330748,543.738884 219.234341,543.874978 C216.376319,553.613231 212.575758,563.185149 208.486354,572.5 C195.92626,571.713681 183.904325,569.747885 171.818541,567.313321 C171.438485,556.531683 171.484092,545.734924 171.788137,534.953285 L169.933463,531.762646 C162.481323,529.373447 156.038612,527.029613 148.999973,524.912601 C151.839752,512.739784 154.880201,500.642574 158.045308,488.5 Z" id="Path" fill="#15ADFF"></path>
                <path d="M188.261132,217.5 C196.169841,222.689135 204.745422,226.894907 213.999973,229.058307 C187.340214,318.862119 160.816551,408.711317 134.111426,498.5 C124.705658,495.882739 115.466229,492.660332 105.999973,490.239744 C106.72582,484.823678 108.81263,479.755572 110.294568,474.53618 C136.288968,388.862496 162.372586,303.203941 188.261132,217.5 Z" id="Path" fill="#02324B"></path>
                <path d="M139.814661,284.591667 C142.693947,284.545833 145.588387,284.515278 148.482828,284.5 C148.467674,288.181944 148.467674,291.848611 148.437365,295.530556 C152.286516,295.545833 156.150822,295.576389 159.999973,295.866667 C158.893721,299.151389 158.302709,302.665278 156.726679,305.781944 C154.150475,306.606944 151.362114,305.980556 148.725294,306.026389 C148.376749,309.845833 148.361595,313.665278 148.467674,317.5 C145.573233,317.454167 142.678793,317.423611 139.799507,317.423611 C139.844969,313.634722 139.829815,309.861111 139.572195,306.0875 C135.723043,306.255556 131.889046,306.240278 128.055049,306.026389 C128.433903,302.772222 127.357959,299.120833 128.691523,296.111111 C132.2679,295.041667 136.147359,295.790278 139.860123,295.530556 C139.799507,291.879167 139.799507,288.227778 139.814661,284.591667 Z" id="Path" fill="#043146"></path>
                <path d="M317.468172,284.560795 C320.358281,284.530397 323.263763,284.5 326.184618,284.5 C326.230737,288.162872 326.199991,291.840942 326.138499,295.503814 C329.997102,295.519012 333.855705,295.519012 337.714308,295.488615 C338.03714,299.014699 338.067885,302.555982 337.898783,306.082066 C333.947943,306.03647 330.012475,306.03647 326.077007,306.294846 C326.215364,309.957718 326.199991,313.62059 326.123126,317.29866 C323.309882,316.827502 319.651126,318.590544 317.452799,316.265153 C317.345188,312.830261 317.483545,309.38017 317.329815,305.945278 C314.501198,305.975675 311.672581,305.975675 308.843963,305.990874 C307.767859,302.510386 306.799365,298.984302 305.999973,295.427821 C309.82783,295.503814 313.655687,295.54941 317.483545,295.503814 C317.468172,291.840942 317.468172,288.193269 317.468172,284.560795 Z" id="Path" fill="#023248"></path>
                <path d="M350.226485,514.702065 C360.402439,510.799748 372.784684,516.773295 375.906511,527.204488 C380.063944,538.296073 371.839131,551.684022 360.14729,553.214931 C350.151441,555.031009 339.510215,547.961812 337.574082,537.935859 C335.097633,528.450227 340.876014,517.703847 350.226485,514.702065 Z M352.943075,524.577928 C345.498719,527.414613 345.348631,539.151581 352.702934,542.213399 C359.847114,546.520957 369.287638,538.100957 366.300891,530.491439 C364.800012,524.983169 358.031052,522.086449 352.943075,524.577928 Z" id="Shape" fill="#023248"></path>
                <path d="M194.999973,306.409522 C195.972258,302.680167 196.762239,298.857966 198.691617,295.5 C220.917444,295.871388 243.173654,295.794015 265.39948,295.515475 C266.827524,299.012711 267.89096,302.618269 268.999973,306.223828 C244.343434,306.719012 219.671704,306.394047 194.999973,306.409522 Z" id="Path" fill="#043147"></path>
                <path d="M355.999973,560.965606 C363.594674,562.098597 371.554652,560.316024 376.835937,554.5 C379.179792,573.126383 380.884415,591.828298 382.999973,610.5 C377.049015,601.285001 372.391743,591.344888 366.9126,581.857971 C363.412036,574.818317 358.876523,568.292285 355.999973,560.965606 Z" id="Path" fill="#043147"></path>
                <path d="M84.9999729,371.874263 C90.4540349,371.433255 95.9231634,371.554912 101.377225,371.737398 C101.362159,378.671865 101.332026,385.606331 101.407358,392.556004 C102.311347,392.479969 104.119323,392.327897 105.023311,392.251861 C104.827447,385.347809 104.872646,378.42855 105.038378,371.524498 C108.91046,371.448462 112.782543,371.554912 116.669692,371.767812 C116.534094,378.687072 116.473828,385.606331 116.639559,392.52559 C117.513415,392.479969 119.230992,392.373519 120.104847,392.327897 C120.13498,385.439052 120.13498,378.550207 120.104847,371.676569 C125.393178,371.706984 130.696576,371.585326 135.999973,371.691777 C131.028038,389.909958 125.51371,407.960861 120.13498,426.042178 C115.886236,426.376735 111.547093,426.848157 107.313415,426.103006 C96.134094,409.937792 89.143252,391.065702 84.9999729,371.874263 Z" id="Path" fill="#01151C"></path>
                <path d="M175.77768,371.895574 C178.581596,371.728216 181.385511,371.682573 184.204583,371.713001 C184.735053,378.711618 184.310677,385.740664 184.522865,392.754495 C185.417087,392.587137 187.190374,392.221992 188.084596,392.054633 C187.78147,385.284232 188.039127,378.513831 187.842095,371.74343 C191.555388,371.652144 195.283838,371.682573 198.997131,371.74343 C198.966818,378.711618 199.012287,385.679806 198.92135,392.663209 C199.86104,392.526279 201.710109,392.25242 202.649799,392.130705 C202.786206,385.34509 202.60433,378.559474 202.695268,371.773859 C206.560124,371.530429 210.440137,371.530429 214.32015,371.789073 C214.32015,378.635546 214.380775,385.482019 214.183743,392.343707 C215.153746,392.343707 217.108909,392.374136 218.078912,392.38935 C217.88188,385.527663 217.957662,378.665975 217.987974,371.804288 C221.686111,371.682573 225.384248,371.667358 229.097542,371.773859 C228.961135,378.650761 229.067229,385.542877 228.961135,392.419779 C229.915982,392.38935 231.795363,392.358921 232.75021,392.328492 C232.613803,385.466805 232.386458,378.589903 232.886616,371.728216 C236.660535,371.728216 240.434453,371.636929 244.223528,371.5 C244.587279,378.468188 244.481185,385.436376 244.268997,392.404564 C245.860409,392.450207 247.466976,392.511065 249.073544,392.571923 C249.134169,385.634163 249.194794,378.711618 249.028075,371.773859 C252.423086,371.713001 255.818097,371.667358 259.213108,371.910788 C259.00092,378.818119 259.061545,385.72545 259.107014,392.647994 C260.137643,392.541494 262.214056,392.313278 263.25984,392.206777 C263.441716,385.405947 263.320465,378.605118 263.290153,371.804288 C266.836727,371.728216 270.383301,371.697787 273.945031,371.789073 C273.70253,378.635546 273.793468,385.512448 273.808625,392.374136 C275.051441,392.374136 277.521918,392.404564 278.764734,392.419779 C278.598015,385.512448 278.628328,378.620332 278.628328,371.728216 C281.795994,371.621715 284.978817,371.636929 288.16164,371.865145 C293.208688,390.061549 298.998394,408.060166 303.999973,426.271784 C255.999973,426.652144 207.999973,426.165284 159.999973,426.5 C164.849989,408.181881 170.836727,390.183264 175.77768,371.895574 Z" id="Path" fill="#02151C"></path>
                <path d="M328.999973,371.809292 C333.809789,371.399779 338.649666,371.414946 343.459482,371.748623 C343.489543,378.619331 343.549666,385.490039 343.369298,392.360746 C344.451507,392.360746 346.615924,392.39108 347.698132,392.39108 C347.547826,385.53554 347.668071,378.664832 347.577887,371.809292 C351.095065,371.627286 354.612243,371.65762 358.144451,371.854793 C357.934022,378.664832 358.129421,385.474871 357.949053,392.300078 C359.031261,392.330412 361.195678,392.406248 362.277887,392.436582 C362.277887,385.474871 362.277887,378.497994 362.247826,371.536283 C367.493531,371.642453 372.739237,371.65762 377.999973,371.900294 C374.272365,390.191847 367.4785,407.816047 357.558255,423.589857 C355.243531,428.610175 348.840464,425.531249 344.631875,425.89526 C339.62666,407.816047 334.125433,389.858171 328.999973,371.809292 Z" id="Path" fill="#02151C"></path>
                <path d="M98.9999729,510.733374 C100.018122,505.140871 102.159229,499.880895 103.881098,494.5 C113.209138,497.689238 122.641987,500.576179 131.999973,503.735187 C130.382913,508.980048 128.511316,514.149335 127.193712,519.5 C117.730917,516.779323 108.522659,513.257557 98.9999729,510.733374 Z" id="Path" fill="#033249"></path>
                <path d="M91.9999729,529.357143 C93.7223747,524.424812 94.8960468,519.281955 97.0757234,514.5 C106.266947,517.808271 115.641081,520.56015 124.999973,523.357143 C124.451243,528.635338 122.469719,533.597744 120.533922,538.5 C111.114061,535.146617 101.496047,532.424812 91.9999729,529.357143 Z" id="Path" fill="#023249"></path>
                <path d="M90.6666395,535.5 C99.9999729,538.852124 109.893912,540.648983 118.999973,544.605094 C106.712094,566.408999 94.8787607,588.469599 82.9999729,610.5 C84.621185,585.434568 87.9999729,560.474834 90.6666395,535.5 Z" id="Path" fill="#023149"></path>
            </g>
        </g>
    </g>
</svg>