<?xml version="1.0" encoding="UTF-8"?>
<svg width="437px" height="147px" viewBox="0 0 437 147" version="1.1" xmlns="http://www.w3.org/2000/svg" xmlns:xlink="http://www.w3.org/1999/xlink">
    <title>Page 1</title>
    <defs>
        <path d="M15.675,28 L15.675,20.475 L19.75,20.475 L23.9,28 L26.4,28 L21.95,19.875 C24.05,19.15 25.45,17.55 25.45,14.825 C25.45,12.35 24.1,9.9 19.6,9.9 L13.4,9.9 L13.4,28 L15.675,28 Z M19.05,18.55 L15.675,18.55 L15.675,11.85 L18.825,11.85 C21.425,11.85 23.075,12.5 23.075,14.95 C23.075,17.75 21.425,18.55 19.05,18.55 Z" id="path-1"></path>
        <path d="M6.17578125,146 L6.48095703,142.447754 L8.32421875,142.447754 L8.58056641,146 L13.8417969,146 L10.8999023,126.236816 L3.46582031,126.236816 L0.853515625,146 L6.17578125,146 Z M8.17773438,138.944336 L6.41992188,138.944336 C6.55013021,137.194661 6.87565104,134.431803 7.39648438,130.655762 C7.65690104,133.943522 7.91731771,136.70638 8.17773438,138.944336 L8.17773438,138.944336 Z M33.3848633,146 L33.3848633,142.044922 L30.2598633,142.044922 L30.2598633,126.236816 L25.1207031,126.236816 L25.1207031,146 L33.3848633,146 Z M50.1691406,146 L50.1691406,138.041016 L51.5485352,138.041016 C52.671582,138.041016 53.5810059,137.886393 54.2768066,137.577148 C54.9726074,137.267904 55.4507161,136.824382 55.7111328,136.246582 C55.9715495,135.668783 56.1017578,134.749186 56.1017578,133.487793 L56.1017578,133.487793 L56.1017578,131.766602 C56.1017578,130.529622 56.0346191,129.61613 55.9003418,129.026123 C55.7660645,128.436117 55.5097168,127.933594 55.1312988,127.518555 C54.7528809,127.103516 54.1872884,126.786133 53.4345215,126.566406 C52.6817546,126.34668 51.6055013,126.236816 50.2057617,126.236816 L50.2057617,126.236816 L45.0299805,126.236816 L45.0299805,146 L50.1691406,146 Z M50.5475586,134.659668 C50.4417643,134.659668 50.315625,134.655599 50.1691406,134.647461 L50.1691406,134.647461 L50.1691406,129.618164 C50.8364583,129.618164 51.2759115,129.719889 51.4875,129.92334 C51.6990885,130.12679 51.8048828,130.566243 51.8048828,131.241699 L51.8048828,131.241699 L51.8048828,132.865234 C51.8048828,133.597656 51.7133301,134.079834 51.5302246,134.311768 C51.3471191,134.543701 51.0195638,134.659668 50.5475586,134.659668 Z M73.1179687,146 L73.1179687,137.699219 L74.6560547,137.699219 L74.6560547,146 L79.7952148,146 L79.7952148,126.236816 L74.6560547,126.236816 L74.6560547,133.304688 L73.1179687,133.304688 L73.1179687,126.236816 L67.9788086,126.236816 L67.9788086,146 L73.1179687,146 Z M96.4085937,146 L96.7137695,142.447754 L98.5570312,142.447754 L98.8133789,146 L104.074609,146 L101.132715,126.236816 L93.6986328,126.236816 L91.0863281,146 L96.4085937,146 Z M98.4105469,138.944336 L96.6527344,138.944336 C96.7829427,137.194661 97.1084635,134.431803 97.6292969,130.655762 C97.8897135,133.943522 98.1501302,136.70638 98.4105469,138.944336 L98.4105469,138.944336 Z M134.457129,146 L134.457129,137.015625 L137.130469,146 L141.634863,146 L141.634863,126.236816 L137.337988,126.236816 L137.337988,135.135742 L134.457129,126.236816 L130.160254,126.236816 L130.160254,146 L134.457129,146 Z M160.091504,146.415039 C161.157585,146.415039 162.083285,146.250244 162.868604,145.920654 C163.653923,145.591064 164.286654,145.106852 164.766797,144.468018 C165.24694,143.829183 165.53584,143.206624 165.633496,142.600342 C165.731152,141.994059 165.77998,140.94222 165.77998,139.444824 L165.77998,126.236816 L160.64082,126.236816 L160.64082,140.799805 C160.64082,141.784505 160.594027,142.409098 160.500439,142.673584 C160.406852,142.93807 160.197298,143.070312 159.871777,143.070312 C159.586947,143.070312 159.397738,142.950277 159.30415,142.710205 C159.210563,142.470133 159.16377,141.918783 159.16377,141.056152 L159.16377,141.056152 L159.16377,126.236816 L154.024609,126.236816 L154.024948,138.276855 C154.029005,140.312825 154.069583,141.6604 154.14668,142.31958 C154.22806,143.015381 154.492546,143.676595 154.940137,144.303223 C155.387728,144.92985 156.063184,145.438477 156.966504,145.829102 C157.869824,146.219727 158.911491,146.415039 160.091504,146.415039 Z M182.661914,146 L182.661914,132.962891 L184.554004,146 L187.740039,146 L189.534473,132.657715 L189.534473,146 L194.02666,146 L194.02666,126.236816 L187.325,126.236816 L186.153125,135.465332 L185.445117,130.436035 C185.225391,128.824707 185.017871,127.424967 184.822559,126.236816 L184.822559,126.236816 L178.169727,126.236816 L178.169727,146 L182.661914,146 Z M215.400781,146 L215.400781,142.044922 L211.628809,142.044922 L211.628809,137.699219 L214.839258,137.699219 L214.839258,133.939453 L211.628809,133.939453 L211.628809,130.191895 L215.058984,130.191895 L215.058984,126.236816 L206.489648,126.236816 L206.489648,146 L215.400781,146 Z M232.416992,146 L232.416992,137.088867 C233.125,137.088867 233.562419,137.215007 233.729248,137.467285 C233.896077,137.719564 233.979492,138.374674 233.979492,139.432617 L233.979492,139.432617 L233.979492,146 L238.752441,146 L238.752441,140.787598 C238.752441,139.192546 238.709717,138.218018 238.624268,137.864014 C238.538818,137.51001 238.321126,137.121419 237.971191,136.698242 C237.621257,136.275065 236.937663,135.937337 235.92041,135.685059 C237.043457,135.579264 237.796224,135.261882 238.178711,134.73291 C238.561198,134.203939 238.752441,133.17041 238.752441,131.632324 C238.752441,129.947754 238.481852,128.720947 237.940674,127.951904 C237.399495,127.182861 236.699626,126.704753 235.841064,126.517578 C234.982503,126.330404 233.340658,126.236816 230.915527,126.236816 L230.915527,126.236816 L227.277832,126.236816 L227.277832,146 L232.416992,146 Z M232.416992,134.012695 L232.416992,129.618164 C233.011068,129.618164 233.420003,129.71582 233.643799,129.911133 C233.867594,130.106445 233.979492,130.517415 233.979492,131.144043 L233.979492,131.144043 L233.979492,132.230469 C233.979492,133.101237 233.863525,133.615967 233.631592,133.774658 C233.399658,133.93335 232.994792,134.012695 232.416992,134.012695 L232.416992,134.012695 Z M256.281348,146 L256.281348,126.236816 L251.142188,126.236816 L251.142188,146 L256.281348,146 Z M274.737988,146.415039 C276.186556,146.415039 277.405225,146.093587 278.393994,145.450684 C279.382764,144.80778 280.021598,144.059082 280.310498,143.20459 C280.599398,142.350098 280.743848,140.90153 280.743848,138.858887 L280.743848,138.858887 L280.743848,138.089844 L275.604688,138.089844 L275.604688,140.567871 C275.604688,141.650228 275.545687,142.337891 275.427686,142.630859 C275.309684,142.923828 275.05944,143.070312 274.676953,143.070312 C274.27819,143.070312 274.021842,142.923828 273.90791,142.630859 C273.793978,142.337891 273.737012,141.711263 273.737012,140.750977 L273.737012,140.750977 L273.737012,131.571289 C273.737012,130.570312 273.793978,129.919271 273.90791,129.618164 C274.021842,129.317057 274.290397,129.166504 274.713574,129.166504 C275.087923,129.166504 275.330029,129.290609 275.439893,129.538818 C275.549756,129.787028 275.604688,130.411621 275.604688,131.412598 L275.604688,131.412598 L275.604688,134.85498 L280.743848,134.85498 L280.743848,132.975098 C280.743848,131.127767 280.589225,129.766683 280.27998,128.891846 C279.970736,128.017008 279.323763,127.286621 278.339063,126.700684 C277.354362,126.114746 276.105176,125.821777 274.591504,125.821777 C273.476595,125.821777 272.48986,126.010986 271.631299,126.389404 C270.772738,126.767822 270.101351,127.286621 269.617139,127.945801 C269.132926,128.60498 268.841992,129.290609 268.744336,130.002686 C268.64668,130.714762 268.597852,131.782878 268.597852,133.207031 L268.597852,133.207031 L268.597852,138.980957 C268.597852,140.917806 268.756543,142.368408 269.073926,143.332764 C269.391309,144.297119 270.038281,145.051921 271.014844,145.597168 C271.991406,146.142415 273.232454,146.415039 274.737988,146.415039 Z M315.447656,146 C316.196354,140.750977 316.672428,137.300456 316.875879,135.648438 C317.32347,139.513997 317.840234,142.964518 318.426172,146 L318.426172,146 L324.84707,146 L327.129785,126.236816 L322.137109,126.236816 C321.469792,130.810384 320.993717,135.485677 320.708887,140.262695 L320.708887,140.262695 L320.147363,132.755371 C319.846257,128.987467 319.659082,126.814616 319.58584,126.236816 L319.58584,126.236816 L314.23916,126.236816 C313.482324,131.827637 313.010319,136.344238 312.823145,139.786621 L312.823145,139.786621 L312.286035,133.133789 L311.761133,126.236816 L306.768457,126.236816 L309.063379,146 L315.447656,146 Z M347.466309,146 L347.466309,142.044922 L343.694336,142.044922 L343.694336,137.699219 L346.904785,137.699219 L346.904785,133.939453 L343.694336,133.939453 L343.694336,130.191895 L347.124512,130.191895 L347.124512,126.236816 L338.555176,126.236816 L338.555176,146 L347.466309,146 Z M365.288184,146 C367.355241,146 368.722428,145.881999 369.389746,145.645996 C370.057064,145.409993 370.543311,144.97054 370.848486,144.327637 C371.153662,143.684733 371.30625,142.695964 371.30625,141.361328 L371.30625,141.361328 L371.30625,139.530273 C371.30625,138.244466 371.094661,137.290283 370.671484,136.667725 C370.248307,136.045166 369.442643,135.599609 368.254492,135.331055 C369.320573,135.086914 370.034684,134.736979 370.396826,134.28125 C370.758968,133.825521 370.940039,133.019857 370.940039,131.864258 C370.940039,130.155273 370.683691,128.91626 370.170996,128.147217 C369.658301,127.378174 368.98488,126.867513 368.150732,126.615234 C367.316585,126.362956 366.089779,126.236816 364.470312,126.236816 L364.470312,126.236816 L359.343359,126.236816 L359.343359,146 L365.288184,146 Z M364.48252,134.012695 L364.48252,129.618164 C365.011491,129.626302 365.367529,129.662923 365.550635,129.728027 C365.73374,129.793132 365.882259,129.949788 365.996191,130.197998 C366.110124,130.446208 366.16709,130.879557 366.16709,131.498047 C366.16709,132.669922 366.097917,133.379964 365.95957,133.628174 C365.821224,133.876383 365.499772,134.000488 364.995215,134.000488 C364.873145,134.000488 364.702246,134.004557 364.48252,134.012695 L364.48252,134.012695 Z M364.48252,142.618652 L364.48252,137.088867 C365.247493,137.113281 365.719499,137.215007 365.898535,137.394043 C366.077572,137.573079 366.16709,138.085775 366.16709,138.932129 L366.16709,138.932129 L366.16709,140.775391 C366.16709,141.572917 366.067399,142.073405 365.868018,142.276855 C365.668636,142.480306 365.206803,142.594238 364.48252,142.618652 L364.48252,142.618652 Z M389.164746,146.415039 C390.418001,146.415039 391.516634,146.189209 392.460645,145.737549 C393.404655,145.285889 394.041455,144.7264 394.371045,144.059082 C394.700635,143.391764 394.86543,142.354167 394.86543,140.946289 C394.86543,139.00944 394.568392,137.605632 393.974316,136.734863 C393.380241,135.864095 391.939811,134.749186 389.653027,133.390137 C388.855501,132.918132 388.371289,132.515299 388.200391,132.181641 C388.021354,131.847982 387.931836,131.351562 387.931836,130.692383 C387.931836,130.179688 388.011182,129.797201 388.169873,129.544922 C388.328564,129.292643 388.562533,129.166504 388.871777,129.166504 C389.156608,129.166504 389.360059,129.260091 389.482129,129.447266 C389.604199,129.63444 389.665234,130.069824 389.665234,130.753418 L389.665234,130.753418 L389.665234,132.218262 L394.438184,132.218262 L394.438184,131.437012 C394.438184,129.866374 394.285596,128.753499 393.98042,128.098389 C393.675244,127.443278 393.052686,126.900065 392.112744,126.46875 C391.172803,126.037435 390.035514,125.821777 388.700879,125.821777 C387.480176,125.821777 386.438509,126.019124 385.575879,126.413818 C384.713249,126.808512 384.088656,127.355794 383.7021,128.055664 C383.315544,128.755534 383.122266,129.862305 383.122266,131.375977 C383.122266,132.425781 383.258577,133.288411 383.531201,133.963867 C383.803825,134.639323 384.147656,135.168294 384.562695,135.550781 C384.977734,135.933268 385.824089,136.547689 387.101758,137.394043 C388.379427,138.232259 389.181022,138.830404 389.506543,139.188477 C389.823926,139.546549 389.982617,140.307454 389.982617,141.471191 C389.982617,142.000163 389.899202,142.398926 389.732373,142.66748 C389.565544,142.936035 389.31123,143.070312 388.969434,143.070312 C388.627637,143.070312 388.3896,142.964518 388.255322,142.75293 C388.121045,142.541341 388.053906,142.065267 388.053906,141.324707 L388.053906,141.324707 L388.053906,138.919922 L383.280957,138.919922 L383.280957,140.213867 C383.280957,141.694987 383.43151,142.838379 383.732617,143.644043 C384.033724,144.449707 384.670524,145.112956 385.643018,145.633789 C386.615511,146.154622 387.789421,146.415039 389.164746,146.415039 Z" id="path-2"></path>
    </defs>
    <g id="Page-1" stroke="none" stroke-width="1" fill="none" fill-rule="evenodd">
        <g id="A" transform="translate(0.882904, 1.742165)" fill="#377DFF">
            <polygon id="Path" points="64.2103271 0 80.1541443 26.9811287 32.4084625 109.615929 0 109.615929"></polygon>
            <polygon id="Path-2" points="63.6997528 109.615929 95.1559448 54.8079643 127.73172 109.615929"></polygon>
        </g>
        <g id="W" transform="translate(252.849144, 0.228691)">
            <polygon id="Path-7" fill="#221F1F" points="0 1.23666942 44.8384924 109.472935 60.7325989 76.9277525 30.3662994 1.23666942"></polygon>
            <polygon id="Path-8" fill="#221F1F" points="47.0387707 1.23666942 91.4580926 109.472935 106.893846 76.4165413 78.0704676 1.23666942"></polygon>
            <polygon id="Path-9" fill="#15C9A7" points="101.533324 21.9923013 115.627619 56.7726314 143.536891 3.15151413e-15 113.224072 0"></polygon>
        </g>
        <g id="N" transform="translate(130.732407, 1.786678)">
            <polygon id="Path-10" fill="#FBB325" points="84.4104405 0 119.438288 0 119.438288 49.7521549"></polygon>
            <polygon id="Path-12" fill="#FBB325" points="0 60.0589679 0 109.311058 35.296663 109.311058"></polygon>
            <polygon id="Path-11" fill="#221F1F" points="-5.61926557e-15 1.02841712e-14 42.0686501 1.02841712e-14 119.438288 109.311058 77.531915 109.311058"></polygon>
        </g>
        <g id="R" transform="translate(400.000000, 0.000000)">
            <circle id="Oval" stroke="#221F1F" stroke-width="3" cx="18.5" cy="18.5" r="17"></circle>
            <g fill-rule="nonzero">
                <use fill="#FFFFFF" xlink:href="#path-1"></use>
                <use fill="#221F1F" xlink:href="#path-1"></use>
            </g>
        </g>
        <g id="ALPHANUMERICWEBS" fill-rule="nonzero">
            <use fill="#FFFFFF" xlink:href="#path-2"></use>
            <use fill="#221F1F" xlink:href="#path-2"></use>
        </g>
    </g>
</svg>