<?xml version="1.0" encoding="UTF-8"?>
<svg width="749px" height="650px" viewBox="0 0 749 650" version="1.1" xmlns="http://www.w3.org/2000/svg" xmlns:xlink="http://www.w3.org/1999/xlink">
    <title>contact</title>
    <g id="Page-1" stroke="none" stroke-width="1" fill="none" fill-rule="evenodd">
        <g id="contact">
            <path d="M748.67374,315.5 C748.67374,459.98 621.55362,581.77 448.09366,619.16 C419.923448,625.216568 391.304505,628.955734 362.52384,630.34 C361.12393,630.41 359.72354,630.47995 358.31384,630.53 C350.8236,630.84 343.276887,631 335.6737,631 C322.453967,631 309.390653,630.53 296.48376,629.59 C289.3236,629.08 282.2235,628.43 275.18346,627.64 C206.71374,619.96 143.70397,599.45 90.48376,569.4 C83.83386,565.65 77.3405267,561.75 71.00376,557.7 C59.4003766,550.313703 48.197881,542.31575 37.4437,533.74 C-33.64614,477.08 25.62387,356.14 62.6737,280 C162.6737,74.5 107.58386,-1.13686838e-13 335.6737,-1.13686838e-13 C563.76354,-1.13686838e-13 748.67374,141.25 748.67374,315.5 Z" id="Path" fill-opacity="0.3" fill="#F2F2F2" fill-rule="nonzero"></path>
            <path d="M585.21234,130.06755 C514.3201,128.7963 514.33134,23.44276 585.21464,22.18193 C656.10458,23.4531 656.09338,128.80664 585.21234,130.06755 Z" id="Path" fill="#FFFFFF" fill-rule="nonzero"></path>
            <path d="M451.14492,287.06755 C380.25267,285.7963 380.26392,180.44276 451.14721,179.18193 C522.03716,180.4531 522.02596,285.80664 451.14492,287.06755 Z" id="Path" fill="#FFFFFF" fill-rule="nonzero"></path>
            <path d="M590.99255,446.49224 C520.10031,445.221 520.11155,339.86745 590.99485,338.60663 C661.8848,339.87781 661.8736,445.23134 590.99255,446.49224 Z" id="Path" fill="#FFFFFF" fill-rule="nonzero"></path>
            <path d="M585.21234,130.06755 C514.3201,128.7963 514.33134,23.44276 585.21464,22.18193 C656.10458,23.4531 656.09338,128.80664 585.21234,130.06755 Z M585.21234,25.45112 C518.61663,26.64556 518.62715,125.61355 585.2145,126.79821 C651.80805,125.60381 651.79753,26.63581 585.21234,25.45112 Z" id="Shape" fill="#E6E6E6" fill-rule="nonzero"></path>
            <path d="M274.9335,626.89002 C274.774196,626.381706 274.663834,625.859332 274.60392,625.33002 L254.01358,507.93002 C253.983128,507.627742 253.936512,507.327312 253.87393,507.03002 C252.980859,502.645312 249.432162,499.292694 245.00382,498.65002 L127.59366,499.16002 C123.034056,498.476171 118.559982,500.838838 116.55366,504.99002 C114.643987,508.97002 112.774033,513.006687 110.9438,517.10002 C103.53364,533.590073 96.71364,551.023423 90.4838,569.40007 C143.70401,599.45007 206.7138,619.96007 275.1835,627.64007 L274.9335,626.89002 Z" id="Path" fill="#2F2E41" fill-rule="nonzero"></path>
            <path d="M389.54597,312.72866 C389.257202,313.997971 389.068972,315.288076 388.98303,316.58698 L287.92803,374.8852 L263.36521,360.74481 L237.17978,395.02527 L278.23072,424.28388 C285.042887,429.139178 294.242276,428.91506 300.80993,423.7338 L405.015,341.5257 C414.643839,345.089983 425.473565,342.324247 432.214249,334.579453 C438.954932,326.834659 440.199998,315.72691 435.341275,306.681941 C430.482553,297.636971 420.53391,292.542192 410.3549,293.886217 C400.17589,295.230243 391.890562,302.732617 389.546,312.7287 L389.54597,312.72866 Z" id="Path" fill="#FFB8B8" fill-rule="nonzero"></path>
            <path d="M286.54387,369.06 C285.923416,366.042755 284.021984,363.444252 281.33387,361.94 L234.96375,336.01 C222.134484,326.111187 203.714423,328.459727 193.779391,341.260965 C183.84436,354.062204 186.140831,372.488829 198.91394,382.46 L235.88367,420.84995 C238.01898,423.067866 241.013728,424.246825 244.087942,424.079772 C247.162157,423.912718 250.011518,422.416189 251.89392,419.97995 L259.09363,410.63995 L261.55363,407.45995 L284.55363,377.64995 C285.39361,376.561983 286.008892,375.317864 286.36369,373.98995 C286.813614,372.384137 286.875372,370.694373 286.54387,369.06 L286.54387,369.06 Z" id="Path" fill="#129AFE" fill-rule="nonzero"></path>
            <circle id="Oval" fill="#FFB8B8" fill-rule="nonzero" transform="translate(178.549197, 249.138628) rotate(-45.000000) translate(-178.549197, -249.138628) " cx="178.549197" cy="249.138628" r="57.77844"></circle>
            <path d="M251.60392,467.83002 C253.92374,464.36002 268.67374,440.94002 263.09366,413.49002 C262.683837,411.454995 262.169827,409.442347 261.55366,407.46002 C258.923991,399.197413 254.723749,391.520246 249.18354,384.85002 C249.25386,383.01002 249.23384,381.20002 249.12397,379.40002 L249.12397,379.39002 C247.437913,353.531195 226.965538,332.862627 201.12397,330.93002 L136.50386,326.02002 C119.619374,324.643178 103.137563,331.657657 92.42378,344.78002 C91.2083095,346.253375 90.0700611,347.78877 89.01362,349.38002 C89.0109789,349.379985 89.0084393,349.381036 89.0065945,349.382926 C89.0047496,349.384816 89.0037611,349.387381 89.00386,349.39002 C80.7593997,361.832686 78.3288694,377.243922 82.3437,391.62002 L82.89399,394.04002 L89.78364,424.25002 L101.30364,474.80002 L110.94378,517.10002 L111.96378,521.56002 C113.071005,526.369586 117.34824,529.780657 122.2836,529.79013 C122.859956,529.792721 123.435479,529.745899 124.00382,529.65007 L249.04382,509.15007 C250.808497,508.867574 252.471381,508.137706 253.87389,507.03007 C254.715926,506.359175 255.453936,505.567246 256.06389,504.68007 C257.710831,502.298095 258.297205,499.340193 257.68351,496.51007 L251.60392,467.83002 Z" id="Path" fill="#129AFE" fill-rule="nonzero"></path>
            <path d="M5.52129,638.45075 C1.22797135,632.326815 -0.132309781,624.615739 1.806472,617.392423 C3.74525378,610.169107 8.78394094,604.175553 15.56672,601.02451 L86.75987,382.13702 L128.01794,401.71402 L50.12111,614.84226 C54.7612536,626.851408 49.6859204,640.433164 38.3073322,646.456311 C26.9287441,652.479458 12.8434876,649.040178 5.52129,638.45075 L5.52129,638.45075 Z" id="Path" fill="#FFB8B8" fill-rule="nonzero"></path>
            <path d="M127.5336,330.43 C111.711074,325.669752 94.898847,333.940565 89.0136,349.38 C89.0109589,349.379965 89.0084193,349.381016 89.0065745,349.382906 C89.0047296,349.384796 89.0037411,349.387361 89.00384,349.39 C88.74358,350.06 88.50384,350.76 88.29384,351.46 L82.26356,364.25 L64.04384,402.9 C62.6343816,405.879897 62.5938215,409.326144 63.9327563,412.338388 C65.271691,415.350632 67.857111,417.629637 71.01356,418.58 L74.56386,419.65 L89.78358,424.25 L116.79384,432.41 L125.79384,435.13 C128.949177,436.08328 132.363206,435.615545 135.145881,433.848735 C137.928556,432.081926 139.80411,429.191135 140.28358,425.93 L148.6039,369.49 C153.524908,352.890287 144.108451,335.434112 127.5336,330.43 Z" id="Path" fill="#129AFE" fill-rule="nonzero"></path>
            <path d="M231.60349,228.12781 C211.01534,246.13767 179.40915,250.31945 154.84567,238.28354 C165.87976,251.37366 186.83493,315.9912 186.83493,315.9912 C186.83493,315.9912 127.66578,309.77266 119.306,307.9852 C69.93047,297.42683 87.878,169.5532 140.49034,170.19881 C149.40152,170.30812 157.19151,171.38573 163.12245,178.03687 C167.05917,167.0021 179.57709,160.50187 191.26281,161.34333 C202.94853,162.18479 213.51635,169.20383 221.03381,178.19006 C233.177676,192.917611 238.171054,212.269351 234.66926,231.03399 L231.60349,228.12781 Z" id="Path" fill="#2F2E41" fill-rule="nonzero"></path>
            <path d="M451.14502,287.06755 C380.25278,285.7963 380.26402,180.44276 451.14732,179.18193 C522.03698,180.45314 522.02578,285.8066 451.14502,287.06755 Z M451.14502,182.45112 C384.54931,183.64556 384.55983,282.61355 451.14718,283.79821 C517.74045,282.60381 517.72993,183.63589 451.14502,182.45112 Z" id="Shape" fill="#E6E6E6" fill-rule="nonzero"></path>
            <path d="M590.99255,446.49224 C520.10031,445.221 520.11155,339.86745 590.99485,338.60663 C661.8848,339.87781 661.8736,445.23134 590.99255,446.49224 Z M590.99255,341.87581 C524.39684,343.07026 524.40737,442.03825 590.99471,443.2229 C657.58826,442.02853 657.57774,343.06054 590.99255,341.87581 L590.99255,341.87581 Z" id="Shape" fill="#E6E6E6" fill-rule="nonzero"></path>
            <path d="M596.73402,48.47238 C583.43489,48.85451 557.57382,44.10104 557.56068,64.60438 C557.94205,77.90258 553.18857,103.76366 573.69197,103.77678 C586.99015,103.39542 612.85115,108.14885 612.8643,87.64552 C612.48294,74.34736 617.2364,48.48632 596.73402,48.47238 Z" id="Path" fill="#3F3D56" fill-rule="nonzero"></path>
            <path d="M600.19056,64.60346 C595.71542,64.65967 595.73044,57.62924 600.20573,57.70518 C604.68074,57.64976 604.66533,64.67874 600.19056,64.60346 Z" id="Path" fill="#FFFFFF" fill-rule="nonzero"></path>
            <path d="M585.21253,66.907 C597.17233,66.73128 597.17243,85.51985 585.21163,85.3428 C573.25263,85.51643 573.25256,66.73157 585.21253,66.907 Z M585.21253,62.29865 C567.27512,62.03665 567.27209,90.21535 585.2137,89.95113 C603.15304,90.21321 603.15055,62.03454 585.21253,62.29867 L585.21253,62.29865 Z" id="Shape" fill="#FFFFFF" fill-rule="nonzero"></path>
            <path d="M493.61163,401.64469 C492.951397,401.663817 492.344787,401.282926 492.075174,400.679949 C491.80556,400.076971 491.926158,399.37092 492.38063,398.89162 L497.82237,393.14126 C498.177293,392.765335 498.160965,392.17306 497.78587,391.81726 L492.0042,386.34574 C491.68128,386.04015 491.492984,385.618794 491.480738,385.174369 C491.468492,384.729945 491.633298,384.298859 491.9389,383.97595 L491.9389,383.97595 C492.573417,383.308705 493.626729,383.276345 494.30101,383.90338 L502.07901,391.1718 C502.388696,391.461204 502.569579,391.862579 502.581259,392.286282 C502.592939,392.709984 502.434443,393.120715 502.14117,393.42674 L494.74556,401.14374 C494.448437,401.453727 494.04088,401.633779 493.61163,401.64469 L493.61163,401.64469 Z" id="Path" fill="#CCCCCC" fill-rule="nonzero"></path>
            <path d="M487.66887,393.27558 C487.491452,393.439193 487.260662,393.532821 487.0194,393.53906 L468.88448,394.03906 C468.527122,394.049352 468.191463,393.868056 468.004124,393.563565 C467.816786,393.259074 467.80628,392.877728 467.97657,392.563384 C468.146859,392.249041 468.472028,392.049539 468.82941,392.04014 L486.96433,391.54014 C487.381265,391.528591 487.761569,391.777066 487.918461,392.163528 C488.075353,392.54999 487.975869,392.993243 487.66887,393.27559 L487.66887,393.27558 Z" id="Path" fill="#CCCCCC" fill-rule="nonzero"></path>
            <path d="M353.61163,242.22 C352.951397,242.239127 352.344787,241.858236 352.075174,241.255259 C351.80556,240.652281 351.926158,239.94623 352.38063,239.46693 L357.82237,233.71657 C358.177293,233.340645 358.160965,232.74837 357.78587,232.39257 L352.0042,226.92104 C351.68128,226.61545 351.492984,226.194094 351.480738,225.749669 C351.468492,225.305245 351.633298,224.874159 351.9389,224.55125 L351.9389,224.55125 C352.57342,223.884008 353.626732,223.851652 354.30101,224.47869 L362.07901,231.74711 C362.388698,232.03651 362.569582,232.437885 362.581262,232.861587 C362.592942,233.285288 362.434444,233.696018 362.14117,234.00204 L354.74556,241.7191 C354.448429,242.029069 354.040872,242.209102 353.61163,242.22 L353.61163,242.22 Z" id="Path" fill="#CCCCCC" fill-rule="nonzero"></path>
            <path d="M347.66887,233.85088 C347.491459,234.014504 347.260665,234.108134 347.0194,234.11436 L328.88448,234.61436 C328.527122,234.624652 328.191463,234.443356 328.004124,234.138865 C327.816786,233.834374 327.80628,233.453028 327.97657,233.138684 C328.146859,232.824341 328.472028,232.624839 328.82941,232.61544 L346.96433,232.11544 C347.381265,232.103885 347.761573,232.352357 347.918466,232.738819 C348.075359,233.125282 347.975873,233.568536 347.66887,233.85088 L347.66887,233.85088 Z" id="Path" fill="#CCCCCC" fill-rule="nonzero"></path>
            <path d="M487.61163,85.22 C486.951397,85.2391266 486.344787,84.8582362 486.075174,84.2552588 C485.80556,83.6522814 485.926158,82.9462296 486.38063,82.46693 L491.82237,76.71657 C492.177293,76.3406452 492.160965,75.7483696 491.78587,75.39257 L486.0042,69.92104 C485.68128,69.6154498 485.492984,69.1940937 485.480738,68.7496694 C485.468492,68.3052451 485.633298,67.8741592 485.9389,67.55125 L485.9389,67.55125 C486.57342,66.8840081 487.626732,66.8516521 488.30101,67.47869 L496.07901,74.74711 C496.388698,75.0365105 496.569582,75.4378851 496.581262,75.8615865 C496.592942,76.285288 496.434444,76.6960181 496.14117,77.00204 L488.74556,84.7191 C488.448429,85.0290689 488.040872,85.2091021 487.61163,85.22 L487.61163,85.22 Z" id="Path" fill="#CCCCCC" fill-rule="nonzero"></path>
            <path d="M481.66887,76.85088 C481.491459,77.0145041 481.260665,77.1081339 481.0194,77.11436 L462.88448,77.61436 C462.527122,77.6246516 462.191463,77.4433561 462.004124,77.1388652 C461.816786,76.8343743 461.80628,76.4530277 461.97657,76.1386842 C462.146859,75.8243406 462.472028,75.6248394 462.82941,75.61544 L480.96433,75.11544 C481.381265,75.1038849 481.761573,75.3523567 481.918466,75.7388192 C482.075359,76.1252817 481.975873,76.5685364 481.66887,76.85088 L481.66887,76.85088 Z" id="Path" fill="#CCCCCC" fill-rule="nonzero"></path>
            <path d="M469.04387,594.88001 C464.35393,604.62001 456.71379,612.50001 448.09367,619.16001 C419.923458,625.216578 391.304515,628.955744 362.52385,630.34001 C361.12394,630.41001 359.72355,630.47996 358.31385,630.53001 C350.82361,630.84001 343.276897,630.996677 335.67371,631.00001 C322.453977,631.00001 309.390663,630.53001 296.48377,629.59001 C295.992336,626.621241 295.92493,623.597731 296.28357,620.61001 C297.71375,608.92001 306.58387,598.18001 318.09363,595.70001 C329.60389,593.22001 342.72351,600.09001 346.21375,611.33001 C348.14392,589.65001 350.35389,567.07001 361.88367,548.61001 C372.31385,531.90001 390.38367,519.94001 409.97351,517.80001 C421.486857,516.601539 433.102451,518.72891 443.44373,523.93001 C444.393923,524.41001 445.333863,524.91001 446.26355,525.43001 C452.47053,528.947559 457.946036,533.62183 462.39392,539.20001 C474.61368,554.65998 477.60392,577.14002 469.04387,594.88001 Z" id="Path" fill="#FFFFFF" fill-rule="nonzero"></path>
            <path d="M446.26358,525.43 C446.312825,525.96394 446.077433,526.484391 445.64395,526.8 C410.936186,555.056144 382.607685,590.344029 362.52384,630.34 C361.12393,630.41 359.72354,630.47995 358.31384,630.53 C360.09362,626.91996 361.940287,623.346627 363.85384,619.81 C373.792281,601.498388 385.483583,584.19402 398.7635,568.14 C412.041408,552.075333 426.866087,537.354573 443.02376,524.19 C443.15194,524.085593 443.293084,523.998202 443.44368,523.93 C444.014301,523.685879 444.664797,523.713416 445.212745,524.004888 C445.760693,524.29636 446.147091,524.820382 446.26358,525.43 Z" id="Path" fill="#F2F2F2" fill-rule="nonzero"></path>
            <path d="M620.28087,378.93981 C620.28087,378.93981 615.70079,384.06981 614.82087,384.39981 C612.40095,410.72981 595.961,416.70981 582.76081,416.70981 C573.27106,416.70981 565.45075,413.61981 565.711,412.76981 C579.79108,413.09981 580.99079,407.31986 580.99079,407.31986 C572.81061,406.10986 571.17096,400.76981 571.17096,400.76981 C572.689726,401.570144 574.56739,401.100714 575.53083,399.67981 C566.70075,397.37981 567.90095,388.75981 567.90095,388.75981 C569.474064,389.897775 571.312423,390.613862 573.24079,390.83981 C572.26079,389.63981 564.00104,379.73981 568.97079,374.60981 C569.26079,375.38981 577.86093,387.09981 592.23104,386.24981 C591.540654,382.864813 592.401503,379.348496 594.577492,376.665232 C596.753482,373.981968 600.016188,372.413434 603.47079,372.38981 C611.11093,372.38981 612.75106,376.75981 612.75106,376.75981 L618.21106,373.47981 C618.10071,373.47981 617.55091,378.93981 614.82093,380.02981 L620.28087,378.93981 Z" id="Path" fill="#3F3D56" fill-rule="nonzero"></path>
            <path d="M480.86762,233.2999 C480.869944,248.044065 470.149528,260.600552 455.58734,262.9099 L455.58734,241.9699 L462.56734,241.9699 L463.89742,233.2999 L455.58736,233.2999 C455.30758,226.0799 455.0273,222.0299 464.24752,222.9999 L464.24752,215.6299 C450.43746,212.5899 444.67721,219.5899 446.22752,233.2999 L438.61766,233.2999 L438.61766,241.9699 L446.22752,241.9699 L446.22752,262.8999 C410.4077,257.3899 414.61766,203.19995 450.89744,203.339629 C458.844738,203.338348 466.467129,206.494016 472.087672,212.11265 C477.708215,217.731283 480.866472,225.352602 480.86762,233.2999 L480.86762,233.2999 Z" id="Path" fill="#3F3D56"></path>
        </g>
    </g>
</svg>