<?xml version="1.0" encoding="UTF-8"?>
<svg width="165px" height="103px" viewBox="0 0 165 103" version="1.1" xmlns="http://www.w3.org/2000/svg" xmlns:xlink="http://www.w3.org/1999/xlink">
    <title>no-posts</title>
    <g id="Page-1" stroke="none" stroke-width="1" fill="none" fill-rule="evenodd">
        <g id="no-posts" transform="translate(0.000000, 1.000000)">
            <path d="M158.083832,14 C161.903526,14 165,17.1340068 165,21 C165,24.8659932 161.903526,28 158.083832,28 L118.562874,28 C122.382568,28 125.479042,31.1340068 125.479042,35 C125.479042,38.8659932 122.382568,42 118.562874,42 L140.299401,42 C144.119095,42 147.215569,45.1340068 147.215569,49 C147.215569,52.865993 144.119095,56 140.299401,56 L130.247331,56 C125.431196,56 121.526946,59.134007 121.526946,63 C121.526946,65.577329 123.502994,67.910662 127.45509,70 C131.274784,70 134.371257,73.134007 134.371257,77 C134.371257,80.865993 131.274784,84 127.45509,84 L45.4491018,84 C41.6294079,84 38.5329341,80.865993 38.5329341,77 C38.5329341,73.134007 41.6294079,70 45.4491018,70 L6.91616766,70 C3.09647378,70 0,66.865993 0,63 C0,59.134007 3.09647378,56 6.91616766,56 L46.4371257,56 C50.2568196,56 53.3532934,52.865993 53.3532934,49 C53.3532934,45.1340068 50.2568196,42 46.4371257,42 L21.7365269,42 C17.9168331,42 14.8203593,38.8659932 14.8203593,35 C14.8203593,31.1340068 17.9168331,28 21.7365269,28 L61.257485,28 C57.4377913,28 54.3413174,24.8659932 54.3413174,21 C54.3413174,17.1340068 57.4377913,14 61.257485,14 L158.083832,14 Z M158.083832,42 C161.903526,42 165,45.1340068 165,49 C165,52.865993 161.903526,56 158.083832,56 C154.264139,56 151.167665,52.865993 151.167665,49 C151.167665,45.1340068 154.264139,42 158.083832,42 Z" id="Background" fill-opacity="0.152492" fill="#8C8C8C" fill-rule="nonzero"></path>
            <path d="M110.347661,16.6732721 L111.300708,85.1439281 L111.300708,92.0013501 C111.300708,94.2104891 109.531294,96.0013501 107.348612,96.0013501 L49.0551988,96.0013501 C46.8725165,96.0013501 45.103103,94.2104891 45.103103,92.0013501 L45.103103,18.0223922 C45.103103,16.9178227 45.9878098,16.0223922 47.0791509,16.0223922 C47.0860447,16.0223922 47.0929386,16.0223922 47.099832,16.0223922 L51.9298563,16.0736678 M55.8354695,16.1150413 L60.3957592,16.1633501" id="Shape" stroke="#75A4FE" stroke-width="2.5" stroke-linecap="round" transform="translate(78.201905, 55.820273) rotate(-7.000000) translate(-78.201905, -55.820273) "></path>
            <path d="M107.460293,20.5234155 L108.224031,82.5626592 L108.215029,88.7760919 C108.212128,90.7777678 106.624943,92.4027703 104.66995,92.4056362 L52.4574958,92.4821798 C50.5025029,92.4850419 48.9200192,90.8646858 48.9229154,88.8630099 L49.0197968,21.9999051 C49.0213969,20.895532 49.9075601,19.9989636 50.9990977,19.9973635 L57.4583029,19.9878948 L57.4583029,19.9878948 L107.460293,20.5234155 Z" id="Rectangle" transform="translate(78.573473, 56.235037) rotate(-7.000000) translate(-78.573473, -56.235037) "></path>
            <path d="M107.920509,0.25 C108.640828,0.25 109.33167,0.5394978 109.84117,1.0548548 L109.84117,1.0548548 L123.123412,14.4897778 C123.633324,15.0055517 123.919817,15.7052828 123.919817,16.434923 L123.919817,16.434923 L123.919817,79 C123.919817,79.759392 123.615699,80.446892 123.124007,80.944544 C122.632315,81.442196 121.953048,81.75 121.202751,81.75 L121.202751,81.75 L62.9093376,81.75 C62.1590401,81.75 61.4797736,81.442196 60.9880815,80.944544 C60.4963894,80.446892 60.1922717,79.759392 60.1922717,79 L60.1922717,79 L60.1922717,3 C60.1922717,2.2406085 60.4963894,1.5531085 60.9880815,1.0554564 C61.4797736,0.5578042 62.1590401,0.25 62.9093376,0.25 L62.9093376,0.25 L107.920509,0.25 Z" id="Rectangle" stroke="#75A4FE" stroke-width="2.5"></path>
            <path d="M108.358439,1.402832 L108.358439,13 C108.358439,14.6568542 109.6855,16 111.322511,16 L119.161092,16" id="Shape" stroke="#75A4FE" stroke-width="2.5" stroke-linecap="round" stroke-linejoin="round"></path>
            <path d="M70.8135292,16 L96.5021519,16 M70.8135292,28 L113.298559,28 M70.8135292,41 L113.298559,41 M70.8135292,54 L113.298559,54 M70.8135292,67 L96.5021519,67" id="lines" stroke="#A4C3FE" stroke-width="2.5" stroke-linecap="round" stroke-linejoin="round"></path>
        </g>
    </g>
</svg>